{
	"asset":{
		"version":"2.0",
		"generator":"Created using the official Cinema 4D glTF Exporter 1.000x284978"
	},
	"scenes":[{
		"nodes":[0]
	}],
	"nodes":[{
		"name":"drill core vers 2.obj",
		"children":[1]
	},
	{
		"name":"Cylinder_cell_Cylinder_cell.010",
		"translation":[0.0,
		-0.32649746537208559,
		0.0],
		"rotation":[0.0,
		0.0,
		0.0,
		-1.0],
		"scale":[1.0,
		1.0,
		1.0],
		"mesh":0
	}],
	"meshes":[{
		"name":"Cylinder_cell_Cylinder_cell.010",
		"primitives":[{
			"attributes":{
				"POSITION":1
			},
			"indices":0,
			"material":0
		}]
	}],
	"accessors":[{
		"bufferView":0,
		"type":"SCALAR",
		"componentType":5123,
		"count":27969,
		"byteOffset":0,
		"min":[0],
		"max":[9088]
	},
	{
		"bufferView":1,
		"type":"VEC3",
		"componentType":5126,
		"count":9089,
		"byteOffset":0,
		"min":[-1.152614951133728,
		0.35651999711990359,
		-0.46957600116729739],
		"max":[1.0475369691848755,
		0.4626480042934418,
		0.4804239869117737]
	}],
	"bufferViews":[{
		"byteLength":55938,
		"buffer":0,
		"byteOffset":0,
		"target":34963
	},
	{
		"byteLength":109068,
		"buffer":0,
		"byteOffset":55940,
		"target":34962
	}],
	"buffers":[{
		"uri":"data:application/octet-stream;base64,",
		"byteLength":165008
	}],
	"materials":[{
		"pbrMetallicRoughness":{
			"baseColorFactor":[0.8,
			0.8,
			0.8,
			1.0],
			"metallicFactor":0.0,
			"roughnessFactor":0.5
		},
		"emissiveFactor":[0.0,
		0.0,
		0.0],
		"alphaMode":"OPAQUE",
		"doubleSided":false,
		"name":"Mat"
	}]
}