{
	"asset":{
		"version":"2.0",
		"generator":"Created using the official Cinema 4D glTF Exporter 1.000x284978"
	},
	"scenes":[{
		"nodes":[0]
	}],
	"nodes":[{
		"name":"cena_completa",
		"children":[1]
	},
	{
		"name":"Polygon Reduction",
		"children":[2]
	},
	{
		"name":"Plate_1",
		"mesh":0
	}],
	"meshes":[{
		"name":"Plate_1",
		"primitives":[{
			"attributes":{
				"POSITION":1
			},
			"indices":0,
			"material":0
		}]
	}],
	"accessors":[{
		"bufferView":0,
		"type":"SCALAR",
		"byteOffset":0,
		"componentType":5123,
		"count":58854,
		"min":[0],
		"max":[9691]
	},
	{
		"bufferView":1,
		"type":"VEC3",
		"byteOffset":0,
		"componentType":5126,
		"count":9692,
		"min":[-15.37519359588623,
		0.04559275135397911,
		-12.981135368347168],
		"max":[15.744227409362793,
		10.084627151489258,
		11.501869201660157]
	}],
	"bufferViews":[{
		"buffer":0,
		"byteOffset":0,
		"byteLength":117708,
		"target":34963
	},
	{
		"buffer":0,
		"byteOffset":117708,
		"byteLength":116304,
		"target":34962
	}],
	"buffers":[{
		"uri":"data:application/octet-stream;base64,",
		"byteLength":234012
	}],
	"materials":[{
		"pbrMetallicRoughness":{
			"baseColorFactor":[0.8,
			0.8,
			0.8,
			1.0],
			"metallicFactor":0.0,
			"roughnessFactor":0.5
		},
		"emissiveFactor":[0.0,
		0.0,
		0.0],
		"name":"Mat",
		"alphaMode":"OPAQUE",
		"doubleSided":false
	}]
}