{
	"asset":{
		"version":"2.0",
		"generator":"Created using the official Cinema 4D glTF Exporter 1.000x284978"
	},
	"scenes":[{
		"nodes":[0,
		2]
	}],
	"nodes":[{
		"name":"Polygon Reduction.1",
		"children":[1]
	},
	{
		"name":"parede",
		"translation":[-1.1911593675613404,
		447.86077880859377,
		-21.370868682861329],
		"rotation":[0.0,
		-0.3826834261417389,
		0.0,
		-0.9238795042037964],
		"scale":[1.0,
		1.0,
		1.0],
		"mesh":0
	},
	{
		"name":"Polygon Reduction",
		"children":[3]
	},
	{
		"name":"Sweep NURBS.1",
		"translation":[-94.46713256835938,
		413.45672607421877,
		-699.081298828125],
		"rotation":[0.0,
		0.0,
		0.0,
		-1.0],
		"scale":[1.0,
		1.0,
		1.0],
		"mesh":1
	}],
	"meshes":[{
		"name":"parede",
		"primitives":[{
			"attributes":{
				"POSITION":1
			},
			"indices":0,
			"material":0
		}]
	},
	{
		"name":"Sweep NURBS.1",
		"primitives":[{
			"attributes":{
				"POSITION":3
			},
			"indices":2,
			"material":0
		}]
	}],
	"accessors":[{
		"bufferView":0,
		"type":"SCALAR",
		"componentType":5123,
		"count":8568,
		"byteOffset":0,
		"min":[0],
		"max":[1429]
	},
	{
		"bufferView":1,
		"type":"VEC3",
		"componentType":5126,
		"count":1430,
		"byteOffset":0,
		"min":[385.640380859375,
		-450.0,
		-1448.8887939453126],
		"max":[1448.8887939453126,
		450.0,
		-385.640380859375]
	},
	{
		"bufferView":2,
		"type":"SCALAR",
		"componentType":5123,
		"count":89130,
		"byteOffset":0,
		"min":[0],
		"max":[14863]
	},
	{
		"bufferView":3,
		"type":"VEC3",
		"componentType":5126,
		"count":14864,
		"byteOffset":0,
		"min":[-451.8026428222656,
		-417.7906494140625,
		-831.3161010742188],
		"max":[473.6190490722656,
		499.2336730957031,
		831.2838745117188]
	}],
	"bufferViews":[{
		"byteLength":17136,
		"buffer":0,
		"byteOffset":0,
		"target":34963
	},
	{
		"byteLength":17160,
		"buffer":0,
		"byteOffset":17136,
		"target":34962
	},
	{
		"byteLength":178260,
		"buffer":1,
		"byteOffset":0,
		"target":34963
	},
	{
		"byteLength":178368,
		"buffer":1,
		"byteOffset":178260,
		"target":34962
	}],
	"buffers":[{
		"uri":"data:application/octet-stream;base64,",
		"byteLength":34296
	},
	{
		"uri":"data:application/octet-stream;base64,",
		"byteLength":356628
	}],
	"materials":[{
		"pbrMetallicRoughness":{
			"baseColorFactor":[0.8,
			0.8,
			0.8,
			1.0],
			"metallicFactor":0.0,
			"roughnessFactor":0.5
		},
		"emissiveFactor":[0.0,
		0.0,
		0.0],
		"alphaMode":"OPAQUE",
		"doubleSided":false,
		"name":"Mat"
	}]
}