{
	"asset":{
		"version":"2.0",
		"generator":"Created using the official Cinema 4D glTF Exporter 1.000x284978"
	},
	"scenes":[{
		"nodes":[0]
	}],
	"nodes":[{
		"name":"Polygon Reduction",
		"children":[1]
	},
	{
		"name":"Default",
		"mesh":0
	}],
	"meshes":[{
		"name":"Default",
		"primitives":[{
			"attributes":{
				"POSITION":1
			},
			"indices":0,
			"material":0
		}]
	}],
	"accessors":[{
		"bufferView":0,
		"type":"SCALAR",
		"byteOffset":0,
		"componentType":5123,
		"count":368103,
		"min":[0],
		"max":[53558]
	},
	{
		"bufferView":1,
		"type":"VEC3",
		"byteOffset":0,
		"componentType":5126,
		"count":53559,
		"min":[-45.74645233154297,
		-11.643317222595215,
		-56.91910934448242],
		"max":[97.24649047851563,
		128.9141845703125,
		99.56107330322266]
	}],
	"bufferViews":[{
		"buffer":0,
		"byteOffset":0,
		"byteLength":736206,
		"target":34963
	},
	{
		"buffer":0,
		"byteOffset":736208,
		"byteLength":642708,
		"target":34962
	}],
	"buffers":[{
		"uri":"data:application/octet-stream;base64,",
		"byteLength":1378916
	}],
	"materials":[{
		"pbrMetallicRoughness":{
			"baseColorFactor":[0.8,
			0.8,
			0.8,
			1.0],
			"metallicFactor":0.0,
			"roughnessFactor":0.5
		},
		"emissiveFactor":[0.0,
		0.0,
		0.0],
		"name":"Mat",
		"alphaMode":"OPAQUE",
		"doubleSided":false
	}]
}