{
	"asset":{
		"version":"2.0",
		"generator":"Created using the official Cinema 4D glTF Exporter 1.000x284978"
	},
	"scenes":[{
		"nodes":[0]
	}],
	"nodes":[{
		"name":"Null",
		"children":[1,
		3]
	},
	{
		"name":"Polygon Reduction.1",
		"translation":[-34.4948616027832,
		0.0,
		0.0],
		"children":[2],
		"rotation":[0.0,
		0.0,
		0.0,
		-1.0],
		"scale":[1.0,
		1.0,
		1.0]
	},
	{
		"name":"Default.1",
		"mesh":0
	},
	{
		"name":"Polygon Reduction",
		"translation":[-34.4948616027832,
		0.0,
		0.0],
		"children":[4],
		"rotation":[0.0,
		0.0,
		0.0,
		-1.0],
		"scale":[1.0,
		1.0,
		1.0]
	},
	{
		"name":"Default.2",
		"mesh":1
	}],
	"meshes":[{
		"name":"Default.1",
		"primitives":[{
			"indices":0,
			"attributes":{
				"POSITION":1
			},
			"material":0
		}]
	},
	{
		"name":"Default.2",
		"primitives":[{
			"indices":2,
			"attributes":{
				"POSITION":3
			},
			"material":0
		}]
	}],
	"accessors":[{
		"bufferView":0,
		"type":"SCALAR",
		"componentType":5123,
		"count":4308,
		"byteOffset":0,
		"min":[0],
		"max":[719]
	},
	{
		"bufferView":1,
		"type":"VEC3",
		"componentType":5126,
		"count":720,
		"byteOffset":0,
		"min":[29.23654556274414,
		17.391023635864259,
		-2.787123203277588],
		"max":[39.98760223388672,
		33.81507110595703,
		4.323553562164307]
	},
	{
		"bufferView":2,
		"type":"SCALAR",
		"componentType":5123,
		"count":37485,
		"byteOffset":0,
		"min":[0],
		"max":[5738]
	},
	{
		"bufferView":3,
		"type":"VEC3",
		"componentType":5126,
		"count":5739,
		"byteOffset":0,
		"min":[25.575054168701173,
		-0.232509583234787,
		-8.738883972167969],
		"max":[43.50918197631836,
		48.511234283447269,
		8.764451026916504]
	}],
	"bufferViews":[{
		"buffer":0,
		"target":34963,
		"byteOffset":0,
		"byteLength":8616
	},
	{
		"buffer":0,
		"target":34962,
		"byteOffset":8616,
		"byteLength":8640
	},
	{
		"buffer":1,
		"target":34963,
		"byteOffset":0,
		"byteLength":74970
	},
	{
		"buffer":1,
		"target":34962,
		"byteOffset":74972,
		"byteLength":68868
	}],
	"buffers":[{
		"uri":"data:application/octet-stream;base64,",
		"byteLength":17256
	},
	{
		"uri":"data:application/octet-stream;base64,",
		"byteLength":143840
	}],
	"materials":[{
		"pbrMetallicRoughness":{
			"baseColorFactor":[0.8,
			0.8,
			0.8,
			1.0],
			"metallicFactor":0.0,
			"roughnessFactor":0.5
		},
		"emissiveFactor":[0.0,
		0.0,
		0.0],
		"alphaMode":"OPAQUE",
		"doubleSided":false,
		"name":"Mat"
	}]
}