{
	"asset":{
		"version":"2.0",
		"generator":"Created using the official Cinema 4D glTF Exporter 1.000x284978"
	},
	"scenes":[{
		"nodes":[0]
	}],
	"nodes":[{
		"name":"Boole.1",
		"children":[1,
		2]
	},
	{
		"name":"Cube",
		"translation":[0.0,
		100.01258850097656,
		0.0],
		"rotation":[0.0,
		0.0,
		0.0,
		-1.0],
		"scale":[1.0,
		1.0,
		1.0],
		"mesh":0
	},
	{
		"name":"Cylinder",
		"translation":[64.70330047607422,
		100.01258850097656,
		0.0],
		"rotation":[0.0,
		0.0,
		0.7071067690849304,
		-0.7071067690849304],
		"scale":[1.0,
		1.0,
		1.0],
		"mesh":1
	}],
	"meshes":[{
		"name":"Cube",
		"primitives":[{
			"indices":0,
			"attributes":{
				"POSITION":1,
				"NORMAL":2,
				"TEXCOORD_0":3
			},
			"material":0
		}]
	},
	{
		"name":"Cylinder",
		"primitives":[{
			"indices":4,
			"attributes":{
				"POSITION":5,
				"NORMAL":6,
				"TEXCOORD_0":7
			}
		}]
	}],
	"accessors":[{
		"bufferView":0,
		"max":[59],
		"type":"SCALAR",
		"componentType":5123,
		"count":150,
		"byteOffset":0,
		"min":[0]
	},
	{
		"bufferView":1,
		"max":[100.0,
		100.0,
		230.0],
		"type":"VEC3",
		"componentType":5126,
		"count":60,
		"byteOffset":0,
		"min":[-100.0,
		-100.0,
		-230.0]
	},
	{
		"bufferView":1,
		"max":[1.0,
		1.0,
		1.0],
		"type":"VEC3",
		"componentType":5126,
		"count":60,
		"byteOffset":12,
		"min":[-1.0,
		-1.0,
		-1.0]
	},
	{
		"bufferView":1,
		"max":[1.0,
		1.0],
		"type":"VEC2",
		"componentType":5126,
		"count":60,
		"byteOffset":24,
		"min":[0.0,
		0.0]
	},
	{
		"bufferView":2,
		"max":[111],
		"type":"SCALAR",
		"componentType":5123,
		"count":324,
		"byteOffset":0,
		"min":[0]
	},
	{
		"bufferView":3,
		"max":[5.0,
		35.29670333862305,
		5.0],
		"type":"VEC3",
		"componentType":5126,
		"count":112,
		"byteOffset":0,
		"min":[-5.0,
		-100.0,
		-5.0]
	},
	{
		"bufferView":3,
		"max":[0.9995750784873962,
		1.0,
		0.9995750784873962],
		"type":"VEC3",
		"componentType":5126,
		"count":112,
		"byteOffset":12,
		"min":[-0.9995750784873962,
		-1.9789285444020225e-19,
		-0.9995750784873962]
	},
	{
		"bufferView":3,
		"max":[1.0,
		1.0],
		"type":"VEC2",
		"componentType":5126,
		"count":112,
		"byteOffset":24,
		"min":[0.0,
		0.0]
	}],
	"bufferViews":[{
		"buffer":0,
		"byteOffset":0,
		"byteLength":300,
		"target":34963
	},
	{
		"buffer":0,
		"byteOffset":300,
		"byteLength":1920,
		"target":34962,
		"byteStride":32
	},
	{
		"buffer":1,
		"byteOffset":0,
		"byteLength":648,
		"target":34963
	},
	{
		"buffer":1,
		"byteOffset":648,
		"byteLength":3584,
		"target":34962,
		"byteStride":32
	}],
	"buffers":[{
		"uri":"data:application/octet-stream;base64,",
		"byteLength":2220
	},
	{
		"uri":"data:application/octet-stream;base64,",
		"byteLength":4232
	}],
	"materials":[{
		"pbrMetallicRoughness":{
			"baseColorFactor":[0.8,
			0.8,
			0.8,
			1.0],
			"metallicFactor":0.0,
			"roughnessFactor":0.5
		},
		"emissiveFactor":[0.0,
		0.0,
		0.0],
		"alphaMode":"OPAQUE",
		"doubleSided":false,
		"name":"Mat"
	}]
}