{
	"asset":{
		"version":"2.0",
		"generator":"Created using the official Cinema 4D glTF Exporter 1.000x284978"
	},
	"scenes":[{
		"nodes":[0,
		3]
	}],
	"nodes":[{
		"name":"Boole",
		"children":[1,
		2]
	},
	{
		"name":"Sphere",
		"translation":[11.9456787109375,
		117.5000991821289,
		12.045952796936036],
		"rotation":[0.0,
		0.0,
		0.0,
		-1.0],
		"scale":[1.0,
		1.0,
		1.0],
		"mesh":0
	},
	{
		"name":"Cube",
		"translation":[11.553214073181153,
		107.51915740966797,
		11.111812591552735],
		"rotation":[0.0,
		0.0,
		0.0,
		-1.0],
		"scale":[1.0,
		1.0,
		1.0],
		"mesh":1
	},
	{
		"name":"Default",
		"children":[4,
		5,
		6,
		7,
		8]
	},
	{
		"name":"Default-poliestireno",
		"mesh":2
	},
	{
		"name":"Default-Latão 3",
		"mesh":3
	},
	{
		"name":"Default-Cedro",
		"mesh":4
	},
	{
		"name":"Default-Tecido em trama",
		"mesh":5
	},
	{
		"name":"Default-metais",
		"mesh":6
	}],
	"meshes":[{
		"name":"Sphere",
		"primitives":[{
			"attributes":{
				"POSITION":1,
				"NORMAL":2,
				"TEXCOORD_0":3
			},
			"indices":0,
			"material":0
		}]
	},
	{
		"name":"Cube",
		"primitives":[{
			"attributes":{
				"POSITION":5,
				"NORMAL":6,
				"TEXCOORD_0":7
			},
			"indices":4,
			"material":0
		}]
	},
	{
		"name":"Default-poliestireno",
		"primitives":[{
			"attributes":{
				"POSITION":9,
				"NORMAL":10,
				"TEXCOORD_0":11
			},
			"indices":8,
			"material":1
		}]
	},
	{
		"name":"Default-Latão 3",
		"primitives":[{
			"attributes":{
				"POSITION":13,
				"NORMAL":14,
				"TEXCOORD_0":15
			},
			"indices":12,
			"material":2
		}]
	},
	{
		"name":"Default-Cedro",
		"primitives":[{
			"attributes":{
				"POSITION":17,
				"NORMAL":18,
				"TEXCOORD_0":19
			},
			"indices":16,
			"material":3
		}]
	},
	{
		"name":"Default-Tecido em trama",
		"primitives":[{
			"attributes":{
				"POSITION":21,
				"NORMAL":22,
				"TEXCOORD_0":23
			},
			"indices":20,
			"material":4
		}]
	},
	{
		"name":"Default-metais",
		"primitives":[{
			"attributes":{
				"POSITION":25,
				"NORMAL":26,
				"TEXCOORD_0":27
			},
			"indices":24,
			"material":5
		}]
	}],
	"accessors":[{
		"bufferView":0,
		"type":"SCALAR",
		"componentType":5123,
		"count":5952,
		"byteOffset":0,
		"min":[0],
		"max":[1103]
	},
	{
		"bufferView":1,
		"type":"VEC3",
		"componentType":5126,
		"count":1104,
		"byteOffset":0,
		"min":[-7.499063491821289,
		0.01906074397265911,
		-7.499063491821289],
		"max":[7.499063491821289,
		7.5,
		7.499063491821289]
	},
	{
		"bufferView":1,
		"type":"VEC3",
		"componentType":5126,
		"count":1104,
		"byteOffset":12,
		"min":[-0.9986618161201477,
		0.04906069114804268,
		-0.9986618757247925],
		"max":[0.9986618161201477,
		0.9999999403953552,
		0.9986618757247925]
	},
	{
		"bufferView":1,
		"type":"VEC2",
		"componentType":5126,
		"count":1104,
		"byteOffset":24,
		"min":[0.0,
		0.0],
		"max":[1.0,
		0.49918973445892336]
	},
	{
		"bufferView":2,
		"type":"SCALAR",
		"componentType":5123,
		"count":186,
		"byteOffset":0,
		"min":[0],
		"max":[63]
	},
	{
		"bufferView":3,
		"type":"VEC3",
		"componentType":5126,
		"count":64,
		"byteOffset":0,
		"min":[-7.106599807739258,
		10.0,
		-6.56492280960083],
		"max":[7.8915276527404789,
		10.0,
		8.433204650878907]
	},
	{
		"bufferView":3,
		"type":"VEC3",
		"componentType":5126,
		"count":64,
		"byteOffset":12,
		"min":[0.0,
		-1.0,
		0.0],
		"max":[0.0,
		-1.0,
		0.0]
	},
	{
		"bufferView":3,
		"type":"VEC2",
		"componentType":5126,
		"count":64,
		"byteOffset":24,
		"min":[0.1446700096130371,
		0.17175385355949403],
		"max":[0.8945763111114502,
		0.9216601848602295]
	},
	{
		"bufferView":4,
		"type":"SCALAR",
		"componentType":5123,
		"count":36,
		"byteOffset":0,
		"min":[0],
		"max":[35]
	},
	{
		"bufferView":5,
		"type":"VEC3",
		"componentType":5126,
		"count":36,
		"byteOffset":0,
		"min":[-21.0,
		190.0,
		-21.0],
		"max":[21.0,
		200.0,
		21.0]
	},
	{
		"bufferView":5,
		"type":"VEC3",
		"componentType":5126,
		"count":36,
		"byteOffset":12,
		"min":[-0.476125031709671,
		-0.04800000041723251,
		-0.4761562645435333],
		"max":[0.476125031709671,
		0.04800000041723251,
		0.4761562645435333]
	},
	{
		"bufferView":5,
		"type":"VEC2",
		"componentType":5126,
		"count":36,
		"byteOffset":24,
		"min":[0.0,
		0.25],
		"max":[1.0,
		1.0]
	},
	{
		"bufferView":6,
		"type":"SCALAR",
		"componentType":5123,
		"count":36,
		"byteOffset":0,
		"min":[0],
		"max":[35]
	},
	{
		"bufferView":7,
		"type":"VEC3",
		"componentType":5126,
		"count":36,
		"byteOffset":0,
		"min":[-21.5,
		179.99998474121095,
		-21.5],
		"max":[21.5,
		189.99998474121095,
		21.5]
	},
	{
		"bufferView":7,
		"type":"VEC3",
		"componentType":5126,
		"count":36,
		"byteOffset":12,
		"min":[-0.4649375081062317,
		-0.04800000041723251,
		-0.4650937616825104],
		"max":[0.4649375081062317,
		0.04800000041723251,
		0.4650937616825104]
	},
	{
		"bufferView":7,
		"type":"VEC2",
		"componentType":5126,
		"count":36,
		"byteOffset":24,
		"min":[0.0,
		0.25],
		"max":[1.0,
		1.0]
	},
	{
		"bufferView":8,
		"type":"SCALAR",
		"componentType":5123,
		"count":144,
		"byteOffset":0,
		"min":[0],
		"max":[143]
	},
	{
		"bufferView":9,
		"type":"VEC3",
		"componentType":5126,
		"count":144,
		"byteOffset":0,
		"min":[-21.399999618530275,
		99.99993133544922,
		-21.399999618530275],
		"max":[21.399999618530275,
		189.99996948242188,
		21.399999618530275]
	},
	{
		"bufferView":9,
		"type":"VEC3",
		"componentType":5126,
		"count":144,
		"byteOffset":12,
		"min":[-0.9986875653266907,
		-0.22221876680850984,
		-0.9987813234329224],
		"max":[0.9986875653266907,
		0.22221876680850984,
		0.9987813234329224]
	},
	{
		"bufferView":9,
		"type":"VEC2",
		"componentType":5126,
		"count":144,
		"byteOffset":24,
		"min":[0.0,
		0.25],
		"max":[1.0,
		1.0]
	},
	{
		"bufferView":10,
		"type":"SCALAR",
		"componentType":5123,
		"count":6,
		"byteOffset":0,
		"min":[0],
		"max":[3]
	},
	{
		"bufferView":11,
		"type":"VEC3",
		"componentType":5126,
		"count":4,
		"byteOffset":0,
		"min":[-20.0,
		98.5,
		-20.0],
		"max":[20.0,
		98.5,
		20.0]
	},
	{
		"bufferView":11,
		"type":"VEC3",
		"componentType":5126,
		"count":4,
		"byteOffset":12,
		"min":[0.0,
		-1.0,
		0.0],
		"max":[0.0,
		-1.0,
		0.0]
	},
	{
		"bufferView":11,
		"type":"VEC2",
		"componentType":5126,
		"count":4,
		"byteOffset":24,
		"min":[0.0,
		0.0],
		"max":[1.0,
		1.0]
	},
	{
		"bufferView":12,
		"type":"SCALAR",
		"componentType":5123,
		"count":432,
		"byteOffset":0,
		"min":[0],
		"max":[431]
	},
	{
		"bufferView":13,
		"type":"VEC3",
		"componentType":5126,
		"count":432,
		"byteOffset":0,
		"min":[-21.5,
		0.0,
		-21.5],
		"max":[21.5,
		100.0000228881836,
		21.5]
	},
	{
		"bufferView":13,
		"type":"VEC3",
		"componentType":5126,
		"count":432,
		"byteOffset":12,
		"min":[-0.5225625038146973,
		-0.522656261920929,
		-0.522656261920929],
		"max":[0.5225625038146973,
		0.522656261920929,
		0.522656261920929]
	},
	{
		"bufferView":13,
		"type":"VEC2",
		"componentType":5126,
		"count":432,
		"byteOffset":24,
		"min":[0.0,
		0.25],
		"max":[1.0,
		1.0]
	}],
	"bufferViews":[{
		"buffer":0,
		"byteOffset":0,
		"byteLength":11904,
		"target":34963
	},
	{
		"buffer":0,
		"byteOffset":11904,
		"byteLength":35328,
		"target":34962,
		"byteStride":32
	},
	{
		"buffer":1,
		"byteOffset":0,
		"byteLength":372,
		"target":34963
	},
	{
		"buffer":1,
		"byteOffset":372,
		"byteLength":2048,
		"target":34962,
		"byteStride":32
	},
	{
		"buffer":2,
		"byteOffset":0,
		"byteLength":72,
		"target":34963
	},
	{
		"buffer":2,
		"byteOffset":72,
		"byteLength":1152,
		"target":34962,
		"byteStride":32
	},
	{
		"buffer":3,
		"byteOffset":0,
		"byteLength":72,
		"target":34963
	},
	{
		"buffer":3,
		"byteOffset":72,
		"byteLength":1152,
		"target":34962,
		"byteStride":32
	},
	{
		"buffer":4,
		"byteOffset":0,
		"byteLength":288,
		"target":34963
	},
	{
		"buffer":4,
		"byteOffset":288,
		"byteLength":4608,
		"target":34962,
		"byteStride":32
	},
	{
		"buffer":5,
		"byteOffset":0,
		"byteLength":12,
		"target":34963
	},
	{
		"buffer":5,
		"byteOffset":12,
		"byteLength":128,
		"target":34962,
		"byteStride":32
	},
	{
		"buffer":6,
		"byteOffset":0,
		"byteLength":864,
		"target":34963
	},
	{
		"buffer":6,
		"byteOffset":864,
		"byteLength":13824,
		"target":34962,
		"byteStride":32
	}],
	"buffers":[{
		"uri":"data:application/octet-stream;base64,",
		"byteLength":47232
	},
	{
		"uri":"data:application/octet-stream;base64,",
		"byteLength":2420
	},
	{
		"uri":"data:application/octet-stream;base64,",
		"byteLength":1224
	},
	{
		"uri":"data:application/octet-stream;base64,",
		"byteLength":1224
	},
	{
		"uri":"data:application/octet-stream;base64,",
		"byteLength":4896
	},
	{
		"uri":"data:application/octet-stream;base64,",
		"byteLength":140
	},
	{
		"uri":"data:application/octet-stream;base64,",
		"byteLength":14688
	}],
	"samplers":[{
		"magFilter":9729,
		"minFilter":9729,
		"wrapS":10497,
		"wrapT":10497
	},
	{
		"magFilter":9729,
		"minFilter":9729,
		"wrapS":10497,
		"wrapT":10497
	},
	{
		"magFilter":9729,
		"minFilter":9729,
		"wrapS":10497,
		"wrapT":10497
	},
	{
		"magFilter":9729,
		"minFilter":9729,
		"wrapS":10497,
		"wrapT":10497
	},
	{
		"magFilter":9729,
		"minFilter":9729,
		"wrapS":10497,
		"wrapT":10497
	},
	{
		"magFilter":9729,
		"minFilter":9729,
		"wrapS":10497,
		"wrapT":10497
	},
	{
		"magFilter":9729,
		"minFilter":9729,
		"wrapS":10497,
		"wrapT":10497
	},
	{
		"magFilter":9729,
		"minFilter":9729,
		"wrapS":10497,
		"wrapT":10497
	}],
	"images":[{
		"uri":"data:image/jpeg;base64,"
	},
	{
		"uri":"data:image/jpeg;base64,"
	},
	{
		"uri":"data:image/jpeg;base64,"
	},
	{
		"uri":"data:image/jpeg;base64,"
	},
	{
		"uri":"data:image/jpeg;base64,"
	},
	{
		"uri":"data:image/jpeg;base64,"
	},
	{
		"uri":"data:image/jpeg;base64,"
	},
	{
		"uri":"data:image/jpeg;base64,"
	}],
	"textures":[{
		"sampler":0,
		"source":0
	},
	{
		"sampler":1,
		"source":1
	},
	{
		"sampler":2,
		"source":2
	},
	{
		"sampler":3,
		"source":3
	},
	{
		"sampler":4,
		"source":4
	},
	{
		"sampler":5,
		"source":5
	},
	{
		"sampler":6,
		"source":6
	},
	{
		"sampler":7,
		"source":7
	}],
	"materials":[{
		"pbrMetallicRoughness":{
			"baseColorFactor":[1.0,
			1.0,
			1.0,
			0.10000002384185791],
			"metallicFactor":1.0,
			"roughnessFactor":0.8399999737739563
		},
		"emissiveFactor":[0.0,
		0.0,
		0.0],
		"alphaMode":"BLEND",
		"doubleSided":false,
		"name":"poliestireno.1"
	},
	{
		"pbrMetallicRoughness":{
			"baseColorFactor":[0.9955909848213196,
			1.0,
			1.0,
			1.0],
			"metallicFactor":1.0,
			"roughnessFactor":0.8399999737739563
		},
		"emissiveFactor":[0.0,
		0.0,
		0.0],
		"alphaMode":"BLEND",
		"doubleSided":false,
		"name":"poliestireno"
	},
	{
		"pbrMetallicRoughness":{
			"baseColorTexture":{
				"index":0
			},
			"baseColorFactor":[0.0,
			0.0,
			0.0,
			1.0],
			"metallicFactor":1.0,
			"roughnessFactor":0.8399999737739563
		},
		"normalTexture":{
			"index":1,
			"scale":1.0
		},
		"emissiveFactor":[0.0,
		0.0,
		0.0],
		"alphaMode":"BLEND",
		"doubleSided":false,
		"name":"Latão 3"
	},
	{
		"pbrMetallicRoughness":{
			"baseColorTexture":{
				"index":2
			},
			"baseColorFactor":[0.0,
			0.0,
			0.0,
			1.0],
			"metallicFactor":1.0,
			"roughnessFactor":1.0
		},
		"normalTexture":{
			"index":3,
			"scale":1.0
		},
		"emissiveFactor":[0.0,
		0.0,
		0.0],
		"alphaMode":"OPAQUE",
		"doubleSided":false,
		"name":"Cedro"
	},
	{
		"pbrMetallicRoughness":{
			"baseColorTexture":{
				"index":4
			},
			"baseColorFactor":[0.0,
			0.0,
			0.0,
			1.0],
			"metallicFactor":1.0,
			"roughnessFactor":1.0
		},
		"normalTexture":{
			"index":5,
			"scale":1.0
		},
		"emissiveFactor":[0.0,
		0.0,
		0.0],
		"alphaMode":"OPAQUE",
		"doubleSided":false,
		"name":"Tecido em trama"
	},
	{
		"pbrMetallicRoughness":{
			"baseColorTexture":{
				"index":6
			},
			"baseColorFactor":[0.0,
			0.0,
			0.0,
			1.0],
			"metallicFactor":1.0,
			"roughnessFactor":0.8399999737739563
		},
		"normalTexture":{
			"index":7,
			"scale":1.0
		},
		"emissiveFactor":[0.0,
		0.0,
		0.0],
		"alphaMode":"OPAQUE",
		"doubleSided":false,
		"name":"metais"
	}]
}