{
	"asset":{
		"version":"2.0",
		"generator":"Created using the official Cinema 4D glTF Exporter 1.000x284978"
	},
	"scenes":[{
		"nodes":[0]
	}],
	"nodes":[{
		"name":"relicario",
		"children":[1,
		3]
	},
	{
		"name":"Polygon Reduction.1",
		"translation":[-34.65840530395508,
		0.0,
		-0.4196668565273285],
		"children":[2],
		"rotation":[0.0,
		0.0,
		0.0,
		-1.0],
		"scale":[1.0,
		1.0,
		1.0]
	},
	{
		"name":"Default.1",
		"mesh":0
	},
	{
		"name":"Polygon Reduction",
		"translation":[-34.65840530395508,
		0.0,
		-0.4196668565273285],
		"children":[4],
		"rotation":[0.0,
		0.0,
		0.0,
		-1.0],
		"scale":[1.0,
		1.0,
		1.0]
	},
	{
		"name":"Default.2",
		"children":[5,
		6]
	},
	{
		"name":"Default.2-defaultMat",
		"mesh":1
	},
	{
		"name":"Default.2-defaultMat",
		"mesh":2
	}],
	"meshes":[{
		"name":"Default.1",
		"primitives":[{
			"indices":0,
			"attributes":{
				"POSITION":1,
				"NORMAL":2,
				"TEXCOORD_0":3
			},
			"material":0
		}]
	},
	{
		"name":"Default.2-defaultMat",
		"primitives":[{
			"indices":4,
			"attributes":{
				"POSITION":5,
				"NORMAL":6,
				"TEXCOORD_0":7
			},
			"material":1
		}]
	},
	{
		"name":"Default.2-defaultMat",
		"primitives":[{
			"indices":8,
			"attributes":{
				"POSITION":9,
				"NORMAL":10,
				"TEXCOORD_0":11
			},
			"material":2
		}]
	}],
	"accessors":[{
		"bufferView":0,
		"type":"SCALAR",
		"componentType":5123,
		"count":8616,
		"byteOffset":0,
		"min":[0],
		"max":[1822]
	},
	{
		"bufferView":1,
		"type":"VEC3",
		"componentType":5126,
		"count":1823,
		"byteOffset":0,
		"min":[29.222591400146486,
		17.38002586364746,
		-2.796175241470337],
		"max":[39.98760223388672,
		33.83137512207031,
		4.323553562164307]
	},
	{
		"bufferView":1,
		"type":"VEC3",
		"componentType":5126,
		"count":1823,
		"byteOffset":12,
		"min":[-0.9997158646583557,
		-0.9971107244491577,
		-0.9996412992477417],
		"max":[0.9993102550506592,
		0.9999769926071167,
		0.9998261332511902]
	},
	{
		"bufferView":1,
		"type":"VEC2",
		"componentType":5126,
		"count":1823,
		"byteOffset":24,
		"min":[0.0020800000056624414,
		0.002604999579489231],
		"max":[0.9011818170547485,
		0.9928925037384033]
	},
	{
		"bufferView":2,
		"type":"SCALAR",
		"componentType":5123,
		"count":61971,
		"byteOffset":0,
		"min":[0],
		"max":[21127]
	},
	{
		"bufferView":3,
		"type":"VEC3",
		"componentType":5126,
		"count":21128,
		"byteOffset":0,
		"min":[25.466882705688478,
		-0.28767311573028567,
		-8.773090362548829],
		"max":[43.50918197631836,
		48.511234283447269,
		8.764451026916504]
	},
	{
		"bufferView":3,
		"type":"VEC3",
		"componentType":5126,
		"count":21128,
		"byteOffset":12,
		"min":[-0.9987813234329224,
		-0.999093770980835,
		-0.995218813419342],
		"max":[0.9977188110351563,
		0.999750018119812,
		0.9979375600814819]
	},
	{
		"bufferView":3,
		"type":"VEC2",
		"componentType":5126,
		"count":21128,
		"byteOffset":24,
		"min":[0.0025262499693781139,
		0.003719999920576811],
		"max":[0.9821500182151794,
		0.993861198425293]
	},
	{
		"bufferView":4,
		"type":"SCALAR",
		"componentType":5123,
		"count":8832,
		"byteOffset":0,
		"min":[0],
		"max":[3155]
	},
	{
		"bufferView":5,
		"type":"VEC3",
		"componentType":5126,
		"count":3156,
		"byteOffset":0,
		"min":[28.038532257080079,
		17.040082931518556,
		2.8829052448272707],
		"max":[40.08793258666992,
		33.949913024902347,
		8.3271484375]
	},
	{
		"bufferView":5,
		"type":"VEC3",
		"componentType":5126,
		"count":3156,
		"byteOffset":12,
		"min":[-0.9964063167572022,
		-0.9912188053131104,
		-0.9925938248634338],
		"max":[0.9914063215255737,
		0.987375020980835,
		0.9838125705718994]
	},
	{
		"bufferView":5,
		"type":"VEC2",
		"componentType":5126,
		"count":3156,
		"byteOffset":24,
		"min":[0.002529999939724803,
		0.047087498009204867],
		"max":[0.9930033683776856,
		0.9846999645233154]
	}],
	"bufferViews":[{
		"buffer":0,
		"target":34963,
		"byteOffset":0,
		"byteLength":17232
	},
	{
		"buffer":0,
		"target":34962,
		"byteOffset":17232,
		"byteLength":58336,
		"byteStride":32
	},
	{
		"buffer":1,
		"target":34963,
		"byteOffset":0,
		"byteLength":123942
	},
	{
		"buffer":1,
		"target":34962,
		"byteOffset":123944,
		"byteLength":676096,
		"byteStride":32
	},
	{
		"buffer":2,
		"target":34963,
		"byteOffset":0,
		"byteLength":17664
	},
	{
		"buffer":2,
		"target":34962,
		"byteOffset":17664,
		"byteLength":100992,
		"byteStride":32
	}],
	"buffers":[{
		"uri":"data:application/octet-stream;base64,",
		"byteLength":75568
	},
	{
		"uri":"data:application/octet-stream;base64,",
		"byteLength":800040
	},
	{
		"uri":"data:application/octet-stream;base64,",
		"byteLength":118656
	}],
	"images":[{
		"uri":"data:image/jpeg;base64,"
	},
	{
		"uri":"data:image/jpeg;base64,"
	}],
	"samplers":[{
		"magFilter":9729,
		"minFilter":9729,
		"wrapS":10497,
		"wrapT":10497
	},
	{
		"magFilter":9729,
		"minFilter":9729,
		"wrapS":10497,
		"wrapT":10497
	}],
	"textures":[{
		"sampler":0,
		"source":0
	},
	{
		"sampler":1,
		"source":1
	}],
	"materials":[{
		"pbrMetallicRoughness":{
			"baseColorTexture":{
				"index":0
			},
			"baseColorFactor":[1.0,
			1.0,
			1.0,
			1.0],
			"metallicFactor":0.0,
			"roughnessFactor":0.5
		},
		"emissiveFactor":[0.0,
		0.0,
		0.0],
		"alphaMode":"OPAQUE",
		"doubleSided":false,
		"name":"defaultMat"
	},
	{
		"pbrMetallicRoughness":{
			"baseColorTexture":{
				"index":1
			},
			"baseColorFactor":[1.0,
			1.0,
			1.0,
			1.0],
			"metallicFactor":0.0,
			"roughnessFactor":0.5
		},
		"emissiveFactor":[0.0,
		0.0,
		0.0],
		"alphaMode":"OPAQUE",
		"doubleSided":false,
		"name":"defaultMat"
	},
	{
		"pbrMetallicRoughness":{
			"baseColorFactor":[1.0,
			1.0,
			1.0,
			1.0],
			"metallicFactor":0.0,
			"roughnessFactor":0.5
		},
		"emissiveFactor":[0.0,
		0.0,
		0.0],
		"alphaMode":"OPAQUE",
		"doubleSided":false,
		"name":"defaultMat"
	}]
}