{
	"materials":[{
		"pbrMetallicRoughness":{
			"baseColorTexture":{
				"index":0
			},
			"baseColorFactor":[0.8,
			0.8,
			0.8,
			0.49],
			"metallicFactor":0.0,
			"roughnessFactor":0.5
		},
		"normalTexture":{
			"index":1,
			"scale":1.0
		},
		"emissiveFactor":[0.0,
		0.0,
		0.0],
		"alphaMode":"BLEND",
		"doubleSided":false,
		"name":"Mat"
	},
	{
		"pbrMetallicRoughness":{
			"baseColorTexture":{
				"index":2
			},
			"baseColorFactor":[0.008,
			0.008,
			0.008,
			1.0],
			"metallicFactor":0.0,
			"roughnessFactor":0.005
		},
		"normalTexture":{
			"index":3,
			"scale":0.64
		},
		"emissiveFactor":[0.0,
		0.0,
		0.0],
		"alphaMode":"OPAQUE",
		"doubleSided":false,
		"name":"Mat"
	}],
	"cameras":[{
		"type":"perspective",
		"perspective":{
			"znear":0.009999999776482582,
			"zfar":10000000000.0,
			"aspectRatio":1.7777777910232545,
			"yfov":0.5483348965644836
		}
	}],
	"asset":{
		"version":"2.0",
		"generator":"Created using the official Cinema 4D glTF Exporter 1.000x284978"
	},
	"scenes":[{
		"nodes":[0,
		4]
	}],
	"nodes":[{
		"name":"Null",
		"children":[1]
	},
	{
		"name":"SATURNO",
		"translation":[0.0,
		130.0,
		0.0],
		"rotation":[-0.18730328977108003,
		-0.03640807420015335,
		0.18730328977108003,
		-0.9635919332504273],
		"scale":[1.0,
		1.0,
		1.0],
		"children":[2,
		3]
	},
	{
		"mesh":0,
		"name":"Tube.1"
	},
	{
		"mesh":1,
		"name":"Sphere",
		"translation":[0.0,
		0.0,
		0.0],
		"rotation":[0.0,
		-0.8703557252883911,
		0.0,
		-0.49242356419563296],
		"scale":[1.0,
		1.0,
		1.0]
	},
	{
		"name":"Camera",
		"translation":[621.7698364257813,
		-80.17340850830078,
		330.7044982910156],
		"rotation":[-0.1674470156431198,
		-0.49572712182998659,
		0.09805764257907868,
		-0.8465227484703064],
		"scale":[1.0,
		1.0,
		1.0],
		"camera":0
	}],
	"meshes":[{
		"name":"Tube.1",
		"primitives":[{
			"attributes":{
				"POSITION":1,
				"NORMAL":2,
				"TEXCOORD_0":3
			},
			"indices":0,
			"material":0
		}]
	},
	{
		"name":"Sphere",
		"primitives":[{
			"attributes":{
				"POSITION":5,
				"NORMAL":6,
				"TEXCOORD_0":7
			},
			"indices":4,
			"material":1
		}]
	}],
	"accessors":[{
		"bufferView":0,
		"type":"SCALAR",
		"max":[515],
		"componentType":5123,
		"count":1536,
		"byteOffset":0,
		"min":[0]
	},
	{
		"bufferView":1,
		"type":"VEC3",
		"max":[200.0,
		0.05000000074505806,
		200.0],
		"componentType":5126,
		"count":516,
		"byteOffset":0,
		"min":[-200.0,
		-0.05000000074505806,
		-200.0]
	},
	{
		"bufferView":1,
		"type":"VEC3",
		"max":[0.9998660087585449,
		1.0,
		0.9998660087585449],
		"componentType":5126,
		"count":516,
		"byteOffset":12,
		"min":[-0.9998660087585449,
		-1.0,
		-0.9998660087585449]
	},
	{
		"bufferView":1,
		"type":"VEC2",
		"max":[1.0,
		100.0],
		"componentType":5126,
		"count":516,
		"byteOffset":24,
		"min":[0.0,
		0.0]
	},
	{
		"bufferView":2,
		"type":"SCALAR",
		"max":[2142],
		"componentType":5123,
		"count":11904,
		"byteOffset":0,
		"min":[0]
	},
	{
		"bufferView":3,
		"type":"VEC3",
		"max":[100.0,
		100.0,
		100.0],
		"componentType":5126,
		"count":2143,
		"byteOffset":0,
		"min":[-100.0,
		-100.0,
		-100.0]
	},
	{
		"bufferView":3,
		"type":"VEC3",
		"max":[0.9999999403953552,
		0.9999999403953552,
		0.9999999403953552],
		"componentType":5126,
		"count":2143,
		"byteOffset":12,
		"min":[-0.9999999403953552,
		-0.9999999403953552,
		-0.9999999403953552]
	},
	{
		"bufferView":3,
		"type":"VEC2",
		"max":[1.0,
		1.0499999523162842],
		"componentType":5126,
		"count":2143,
		"byteOffset":24,
		"min":[0.0,
		0.05000000074505806]
	}],
	"bufferViews":[{
		"buffer":0,
		"byteOffset":0,
		"byteLength":3072,
		"target":34963
	},
	{
		"buffer":0,
		"byteOffset":3072,
		"byteLength":16512,
		"target":34962,
		"byteStride":32
	},
	{
		"buffer":1,
		"byteOffset":0,
		"byteLength":23808,
		"target":34963
	},
	{
		"buffer":1,
		"byteOffset":23808,
		"byteLength":68576,
		"target":34962,
		"byteStride":32
	}],
	"buffers":[{
		"uri":"data:application/octet-stream;base64,",
		"byteLength":19584
	},
	{
		"uri":"data:application/octet-stream;base64,",
		"byteLength":92384
	}],
	"images":[{
		"uri":"data:image/png;base64,"
	},
	{
		"uri":"data:image/jpeg;base64,"
	},
	{
		"uri":"data:image/jpeg;base64,"
	},
	{
		"uri":"data:image/jpeg;base64,"
	}],
	"samplers":[{
		"magFilter":9729,
		"minFilter":9729,
		"wrapS":10497,
		"wrapT":10497
	},
	{
		"magFilter":9729,
		"minFilter":9729,
		"wrapS":10497,
		"wrapT":10497
	},
	{
		"magFilter":9729,
		"minFilter":9729,
		"wrapS":10497,
		"wrapT":10497
	},
	{
		"magFilter":9729,
		"minFilter":9729,
		"wrapS":10497,
		"wrapT":10497
	}],
	"textures":[{
		"sampler":0,
		"source":0
	},
	{
		"sampler":1,
		"source":1
	},
	{
		"sampler":2,
		"source":2
	},
	{
		"sampler":3,
		"source":3
	}]
}